<svg xmlns="http://www.w3.org/2000/svg" xmlns:xlink="http://www.w3.org/1999/xlink" width="500" zoomAndPan="magnify" viewBox="0 0 375 74.999997" height="100" preserveAspectRatio="xMidYMid meet" version="1.0"><defs><g/></defs><g fill="#000000" fill-opacity="1"><g transform="translate(1.098021, 52.665006)"><g><path d="M 18.890625 0.421875 C 15.472656 0.421875 12.5 -0.273438 9.96875 -1.671875 C 7.4375 -3.078125 5.488281 -5.050781 4.125 -7.59375 C 2.757812 -10.144531 2.078125 -13.09375 2.078125 -16.4375 C 2.078125 -19.757812 2.757812 -22.6875 4.125 -25.21875 C 5.488281 -27.75 7.4375 -29.710938 9.96875 -31.109375 C 12.5 -32.515625 15.472656 -33.21875 18.890625 -33.21875 C 21.035156 -33.21875 23.113281 -32.894531 25.125 -32.25 C 27.132812 -31.601562 28.753906 -30.726562 29.984375 -29.625 L 27.359375 -23.484375 C 24.691406 -25.421875 21.925781 -26.390625 19.0625 -26.390625 C 16.425781 -26.390625 14.398438 -25.550781 12.984375 -23.875 C 11.578125 -22.207031 10.875 -19.726562 10.875 -16.4375 C 10.875 -13.125 11.578125 -10.625 12.984375 -8.9375 C 14.398438 -7.25 16.425781 -6.40625 19.0625 -6.40625 C 21.925781 -6.40625 24.691406 -7.367188 27.359375 -9.296875 L 29.984375 -3.171875 C 28.753906 -2.066406 27.132812 -1.191406 25.125 -0.546875 C 23.113281 0.0976562 21.035156 0.421875 18.890625 0.421875 Z M 18.890625 0.421875 "/></g></g></g><g fill="#000000" fill-opacity="1"><g transform="translate(32.648741, 52.665006)"><g><path d="M 18.5625 0.421875 C 15.21875 0.421875 12.300781 -0.257812 9.8125 -1.625 C 7.320312 -3 5.410156 -4.957031 4.078125 -7.5 C 2.742188 -10.050781 2.078125 -13.03125 2.078125 -16.4375 C 2.078125 -19.851562 2.75 -22.816406 4.09375 -25.328125 C 5.445312 -27.847656 7.359375 -29.789062 9.828125 -31.15625 C 12.304688 -32.53125 15.21875 -33.21875 18.5625 -33.21875 C 21.90625 -33.21875 24.8125 -32.53125 27.28125 -31.15625 C 29.757812 -29.789062 31.660156 -27.847656 32.984375 -25.328125 C 34.304688 -22.816406 34.96875 -19.851562 34.96875 -16.4375 C 34.96875 -13.03125 34.304688 -10.050781 32.984375 -7.5 C 31.660156 -4.957031 29.757812 -3 27.28125 -1.625 C 24.8125 -0.257812 21.90625 0.421875 18.5625 0.421875 Z M 18.5625 -6.171875 C 21.019531 -6.171875 22.945312 -7.046875 24.34375 -8.796875 C 25.738281 -10.546875 26.4375 -13.09375 26.4375 -16.4375 C 26.4375 -19.757812 25.738281 -22.285156 24.34375 -24.015625 C 22.945312 -25.753906 21.019531 -26.625 18.5625 -26.625 C 16.101562 -26.625 14.179688 -25.765625 12.796875 -24.046875 C 11.421875 -22.328125 10.734375 -19.789062 10.734375 -16.4375 C 10.734375 -13.0625 11.421875 -10.503906 12.796875 -8.765625 C 14.179688 -7.035156 16.101562 -6.171875 18.5625 -6.171875 Z M 18.5625 -6.171875 "/></g></g></g><g fill="#000000" fill-opacity="1"><g transform="translate(69.726597, 52.665006)"><g><path d="M 24.140625 -32.796875 L 32.296875 -32.796875 L 32.296875 0 L 25.890625 0 L 11.015625 -18.609375 L 11.015625 0 L 2.953125 0 L 2.953125 -32.796875 L 9.265625 -32.796875 L 24.140625 -14.28125 Z M 24.140625 -32.796875 "/></g></g></g><g fill="#000000" fill-opacity="1"><g transform="translate(105.008136, 52.665006)"><g><path d="M 10.3125 0 L 10.3125 -25.796875 L 0.546875 -25.796875 L 0.546875 -32.796875 L 28.828125 -32.796875 L 28.828125 -25.796875 L 19.0625 -25.796875 L 19.0625 0 Z M 10.3125 0 "/></g></g></g><g fill="#000000" fill-opacity="1"><g transform="translate(134.394065, 52.665006)"><g><path d="M 27.953125 0 L 25.0625 -6.765625 L 10.5 -6.765625 L 7.59375 0 L -1.0625 0 L 14.28125 -32.796875 L 21.09375 -32.796875 L 36.484375 0 Z M 13.3125 -13.265625 L 22.25 -13.265625 L 17.78125 -23.625 Z M 13.3125 -13.265625 "/></g></g></g><g fill="#000000" fill-opacity="1"><g transform="translate(169.813789, 52.665006)"><g><path d="M 18.890625 0.421875 C 15.472656 0.421875 12.5 -0.273438 9.96875 -1.671875 C 7.4375 -3.078125 5.488281 -5.050781 4.125 -7.59375 C 2.757812 -10.144531 2.078125 -13.09375 2.078125 -16.4375 C 2.078125 -19.757812 2.757812 -22.6875 4.125 -25.21875 C 5.488281 -27.75 7.4375 -29.710938 9.96875 -31.109375 C 12.5 -32.515625 15.472656 -33.21875 18.890625 -33.21875 C 21.035156 -33.21875 23.113281 -32.894531 25.125 -32.25 C 27.132812 -31.601562 28.753906 -30.726562 29.984375 -29.625 L 27.359375 -23.484375 C 24.691406 -25.421875 21.925781 -26.390625 19.0625 -26.390625 C 16.425781 -26.390625 14.398438 -25.550781 12.984375 -23.875 C 11.578125 -22.207031 10.875 -19.726562 10.875 -16.4375 C 10.875 -13.125 11.578125 -10.625 12.984375 -8.9375 C 14.398438 -7.25 16.425781 -6.40625 19.0625 -6.40625 C 21.925781 -6.40625 24.691406 -7.367188 27.359375 -9.296875 L 29.984375 -3.171875 C 28.753906 -2.066406 27.132812 -1.191406 25.125 -0.546875 C 23.113281 0.0976562 21.035156 0.421875 18.890625 0.421875 Z M 18.890625 0.421875 "/></g></g></g><g fill="#000000" fill-opacity="1"><g transform="translate(201.36451, 52.665006)"><g><path d="M 10.3125 0 L 10.3125 -25.796875 L 0.546875 -25.796875 L 0.546875 -32.796875 L 28.828125 -32.796875 L 28.828125 -25.796875 L 19.0625 -25.796875 L 19.0625 0 Z M 10.3125 0 "/></g></g></g><g fill="#b2935b" fill-opacity="1"><g transform="translate(230.739623, 52.665006)"><g><path d="M 25.5625 -16.953125 C 27.25 -16.429688 28.566406 -15.476562 29.515625 -14.09375 C 30.472656 -12.707031 30.953125 -11.109375 30.953125 -9.296875 C 30.953125 -6.347656 29.820312 -4.0625 27.5625 -2.4375 C 25.3125 -0.8125 22.328125 0 18.609375 0 L 2.125 0 L 4.65625 -32.796875 L 20.125 -32.796875 C 23.71875 -32.796875 26.472656 -32.023438 28.390625 -30.484375 C 30.316406 -28.953125 31.28125 -26.957031 31.28125 -24.5 C 31.28125 -22.6875 30.800781 -21.160156 29.84375 -19.921875 C 28.894531 -18.679688 27.46875 -17.691406 25.5625 -16.953125 Z M 18.015625 -19.9375 C 19.828125 -19.9375 21.097656 -20.164062 21.828125 -20.625 C 22.566406 -21.09375 22.9375 -21.925781 22.9375 -23.125 C 22.9375 -24.164062 22.585938 -24.945312 21.890625 -25.46875 C 21.203125 -25.988281 20.09375 -26.25 18.5625 -26.25 L 12.625 -26.25 L 12.109375 -19.9375 Z M 17.875 -6.546875 C 19.6875 -6.546875 20.972656 -6.789062 21.734375 -7.28125 C 22.503906 -7.769531 22.890625 -8.675781 22.890625 -10 C 22.890625 -11.164062 22.535156 -12.023438 21.828125 -12.578125 C 21.128906 -13.128906 19.992188 -13.40625 18.421875 -13.40625 L 11.609375 -13.40625 L 11.0625 -6.546875 Z M 17.875 -6.546875 "/></g></g></g><g fill="#b2935b" fill-opacity="1"><g transform="translate(263.073357, 52.665006)"><g><path d="M 18.75 0.453125 C 15.457031 0.453125 12.582031 -0.179688 10.125 -1.453125 C 7.675781 -2.722656 5.789062 -4.554688 4.46875 -6.953125 C 3.144531 -9.347656 2.484375 -12.160156 2.484375 -15.390625 C 2.484375 -18.953125 3.164062 -22.082031 4.53125 -24.78125 C 5.90625 -27.476562 7.847656 -29.5625 10.359375 -31.03125 C 12.878906 -32.507812 15.796875 -33.25 19.109375 -33.25 C 22.398438 -33.25 25.273438 -32.613281 27.734375 -31.34375 C 30.191406 -30.070312 32.078125 -28.238281 33.390625 -25.84375 C 34.710938 -23.445312 35.375 -20.632812 35.375 -17.40625 C 35.375 -13.84375 34.691406 -10.710938 33.328125 -8.015625 C 31.960938 -5.316406 30.019531 -3.226562 27.5 -1.75 C 24.976562 -0.28125 22.0625 0.453125 18.75 0.453125 Z M 18.65625 -6.171875 C 21.144531 -6.171875 23.117188 -7.164062 24.578125 -9.15625 C 26.035156 -11.15625 26.765625 -13.90625 26.765625 -17.40625 C 26.765625 -20.320312 26.101562 -22.585938 24.78125 -24.203125 C 23.457031 -25.816406 21.613281 -26.625 19.25 -26.625 C 16.707031 -26.625 14.710938 -25.625 13.265625 -23.625 C 11.816406 -21.632812 11.09375 -18.890625 11.09375 -15.390625 C 11.09375 -12.441406 11.742188 -10.164062 13.046875 -8.5625 C 14.359375 -6.96875 16.226562 -6.171875 18.65625 -6.171875 Z M 18.65625 -6.171875 "/></g></g></g><g fill="#b2935b" fill-opacity="1"><g transform="translate(300.151214, 52.665006)"><g><path d="M 18.75 0.453125 C 15.457031 0.453125 12.582031 -0.179688 10.125 -1.453125 C 7.675781 -2.722656 5.789062 -4.554688 4.46875 -6.953125 C 3.144531 -9.347656 2.484375 -12.160156 2.484375 -15.390625 C 2.484375 -18.953125 3.164062 -22.082031 4.53125 -24.78125 C 5.90625 -27.476562 7.847656 -29.5625 10.359375 -31.03125 C 12.878906 -32.507812 15.796875 -33.25 19.109375 -33.25 C 22.398438 -33.25 25.273438 -32.613281 27.734375 -31.34375 C 30.191406 -30.070312 32.078125 -28.238281 33.390625 -25.84375 C 34.710938 -23.445312 35.375 -20.632812 35.375 -17.40625 C 35.375 -13.84375 34.691406 -10.710938 33.328125 -8.015625 C 31.960938 -5.316406 30.019531 -3.226562 27.5 -1.75 C 24.976562 -0.28125 22.0625 0.453125 18.75 0.453125 Z M 18.65625 -6.171875 C 21.144531 -6.171875 23.117188 -7.164062 24.578125 -9.15625 C 26.035156 -11.15625 26.765625 -13.90625 26.765625 -17.40625 C 26.765625 -20.320312 26.101562 -22.585938 24.78125 -24.203125 C 23.457031 -25.816406 21.613281 -26.625 19.25 -26.625 C 16.707031 -26.625 14.710938 -25.625 13.265625 -23.625 C 11.816406 -21.632812 11.09375 -18.890625 11.09375 -15.390625 C 11.09375 -12.441406 11.742188 -10.164062 13.046875 -8.5625 C 14.359375 -6.96875 16.226562 -6.171875 18.65625 -6.171875 Z M 18.65625 -6.171875 "/></g></g></g><g fill="#b2935b" fill-opacity="1"><g transform="translate(337.22907, 52.665006)"><g><path d="M 36.203125 -32.796875 L 20.640625 -16.859375 L 34.171875 0 L 24.140625 0 L 11.9375 -14.78125 L 10.78125 0 L 2.125 0 L 4.65625 -32.796875 L 13.359375 -32.796875 L 12.25 -18.65625 L 25.796875 -32.796875 Z M 36.203125 -32.796875 "/></g></g></g></svg>